<svg width="16" height="16" viewBox="0 0 16 16" fill="none" xmlns="http://www.w3.org/2000/svg">
<g clip-path="url(#clip0_152_754)">
<path d="M4.18022 15.0002H9.22689C9.64543 15.0006 10.0599 14.9183 10.4466 14.7582C10.8333 14.598 11.1845 14.3631 11.4802 14.0669L14.6202 10.9269C14.8739 10.674 15.0168 10.3308 15.0175 9.97256C15.0181 9.61437 14.8764 9.2706 14.6236 9.01687C14.3707 8.76315 14.0274 8.62026 13.6692 8.61963C13.3111 8.61901 12.9673 8.7607 12.7136 9.01354L9.27356 12.4535H8.66689C8.85199 12.4532 9.03481 12.4126 9.20259 12.3344C9.37038 12.2563 9.51911 12.1425 9.63842 12.0009C9.75773 11.8594 9.84475 11.6936 9.89342 11.515C9.94209 11.3364 9.95124 11.1494 9.92022 10.9669C9.85653 10.6624 9.68838 10.3898 9.44489 10.1962C9.20139 10.0026 8.89788 9.90028 8.58689 9.90687H6.09356L5.47356 9.6002C4.94108 9.33603 4.344 9.23016 3.75317 9.29515C3.16233 9.36015 2.60254 9.59327 2.14022 9.96687C1.77951 10.2562 1.4894 10.6239 1.29189 11.0421C1.09437 11.4602 0.994629 11.9178 1.00022 12.3802V12.4535" stroke="black" stroke-miterlimit="10"/>
<path d="M8.63979 12.4531H5.45312" stroke="black" stroke-miterlimit="10"/>
<path d="M3.54688 1H4.82021C5.6636 1 6.47244 1.33503 7.06881 1.9314C7.66517 2.52777 8.00021 3.33661 8.00021 4.18H6.72688C5.88349 4.18 5.07464 3.84497 4.47828 3.2486C3.88191 2.65223 3.54688 1.84339 3.54688 1Z" stroke="black" stroke-miterlimit="10"/>
<path d="M9.27312 4.81982L7.99979 4.81982C7.99979 4.40222 8.08204 3.98871 8.24185 3.60289C8.40166 3.21708 8.6359 2.86652 8.93119 2.57122C9.52756 1.97486 10.3364 1.63982 11.1798 1.63982H12.4531C12.4531 2.48321 12.1181 3.29206 11.5217 3.88842C10.9254 4.48479 10.1165 4.81982 9.27312 4.81982Z" stroke="black" stroke-miterlimit="10"/>
<path d="M8 6.72684V4.18018" stroke="black" stroke-miterlimit="10"/>
<path d="M4.86621 9.37314C5.00196 8.58937 5.42651 7.88494 6.05611 7.39882C6.68571 6.91269 7.47463 6.68018 8.26724 6.74713C9.05985 6.81409 9.79859 7.17566 10.3377 7.76052C10.8768 8.34537 11.1772 9.11104 11.1795 9.90647C11.1841 10.1489 11.1572 10.3909 11.0995 10.6265" stroke="black" stroke-miterlimit="10"/>
</g>
<defs>
<clipPath id="clip0_152_754">
<rect width="16" height="16" fill="white"/>
</clipPath>
</defs>
</svg>
