<svg width="24" height="24" viewBox="0 0 24 24" fill="none" xmlns="http://www.w3.org/2000/svg">
<g clip-path="url(#clip0_194_413)">
<path d="M12.0003 23.4999V17.9999C11.9949 17.2486 11.693 16.5298 11.1603 15.9999L8.58035 13.3999C8.40368 13.2216 8.19341 13.0799 7.9617 12.9833C7.72998 12.8867 7.48141 12.8369 7.23035 12.8369C6.97928 12.8369 6.73071 12.8867 6.49899 12.9833C6.26728 13.0799 6.05701 13.2216 5.88035 13.3999C5.7016 13.5762 5.55997 13.7864 5.46379 14.0183C5.36761 14.2502 5.31884 14.4989 5.32035 14.7499C5.31925 15.1032 5.38855 15.4532 5.52418 15.7794C5.65982 16.1056 5.85909 16.4016 6.11035 16.6499L8.18035 18.7299" stroke="black" stroke-width="1.5" stroke-miterlimit="10"/>
<path d="M5.3196 23.5002V22.5502L2.3196 19.5502C1.78874 19.0191 1.48717 18.3011 1.4796 17.5502V10.1502C1.4769 9.89648 1.52505 9.64478 1.62121 9.40996C1.71737 9.17514 1.85959 8.96195 2.03948 8.78299C2.21938 8.60403 2.43329 8.46292 2.66861 8.36798C2.90393 8.27304 3.15588 8.2262 3.4096 8.23022C3.91616 8.23022 4.40198 8.43145 4.76017 8.78965C5.11837 9.14784 5.3196 9.63366 5.3196 10.1402V15.8602L8.1796 18.7302" stroke="black" stroke-width="1.5" stroke-miterlimit="10"/>
<path d="M12 23.5V18C12.0054 17.2486 12.3073 16.5298 12.84 16L15.42 13.42C15.5967 13.2416 15.8069 13.1 16.0386 13.0033C16.2704 12.9067 16.5189 12.8569 16.77 12.8569C17.0211 12.8569 17.2696 12.9067 17.5014 13.0033C17.7331 13.1 17.9433 13.2416 18.12 13.42C18.2987 13.5962 18.4404 13.8065 18.5366 14.0383C18.6327 14.2702 18.6815 14.5189 18.68 14.77C18.6811 15.1233 18.6118 15.4732 18.4762 15.7994C18.3405 16.1257 18.1413 16.4216 17.89 16.67L15.82 18.75" stroke="black" stroke-width="1.5" stroke-miterlimit="10"/>
<path d="M18.6798 23.4998V22.5498L21.6798 19.5498C22.2107 19.0187 22.5123 18.3007 22.5198 17.5498V10.1498C22.5212 9.89858 22.4727 9.64961 22.3772 9.41728C22.2816 9.18495 22.141 8.97387 21.9634 8.79624C21.7857 8.61862 21.5747 8.47798 21.3423 8.38246C21.11 8.28695 20.861 8.23845 20.6098 8.23977C20.359 8.23977 20.1106 8.28918 19.8789 8.38516C19.6472 8.48115 19.4366 8.62184 19.2593 8.7992C19.0819 8.97656 18.9412 9.18712 18.8452 9.41885C18.7492 9.65058 18.6998 9.89895 18.6998 10.1498V15.8698L15.8398 18.7398" stroke="black" stroke-width="1.5" stroke-miterlimit="10"/>
<path d="M12.0002 2.5L13.0902 4.7L15.5102 5.05L13.7602 6.76L14.1702 9.18L12.0002 8.04L9.83023 9.18L10.2402 6.76L8.49023 5.05L10.9102 4.7L12.0002 2.5Z" stroke="black" stroke-width="1.5" stroke-miterlimit="10"/>
</g>
<defs>
<clipPath id="clip0_194_413">
<rect width="24" height="24" fill="white"/>
</clipPath>
</defs>
</svg>
