<svg width="16" height="16" viewBox="0 0 16 16" fill="none" xmlns="http://www.w3.org/2000/svg">
<g clip-path="url(#clip0_156_556)">
<path d="M8.00029 2.90659V13.7266C7.99854 14.0638 7.86382 14.3866 7.62541 14.625C7.38699 14.8635 7.06413 14.9982 6.72696 14.9999C6.39033 14.9964 6.06846 14.8612 5.83041 14.6231C5.59236 14.3851 5.4571 14.0632 5.45363 13.7266C5.34722 13.7371 5.24003 13.7371 5.13362 13.7266C4.54362 13.7248 3.97828 13.4897 3.56108 13.0725C3.14388 12.6553 2.90872 12.0899 2.90696 11.4999C2.90745 11.3429 2.92534 11.1864 2.96029 11.0333C2.43983 10.8606 1.97998 10.5419 1.63554 10.1152C1.29111 9.68848 1.0766 9.17175 1.01759 8.62657C0.958574 8.08139 1.05754 7.53073 1.30269 7.04021C1.54784 6.54969 1.92884 6.13999 2.40029 5.85992C2.31672 5.62675 2.27387 5.38095 2.27363 5.13325C2.27448 4.59876 2.46756 4.08241 2.81762 3.6785C3.16768 3.27458 3.65135 3.01007 4.18029 2.93325C4.20908 2.4462 4.42285 1.98854 4.77788 1.65387C5.13291 1.31921 5.60239 1.13281 6.09029 1.13281C6.5782 1.13281 7.04767 1.31921 7.4027 1.65387C7.75774 1.98854 7.9715 2.4462 8.00029 2.93325V2.90659Z" stroke="#BAAA8F" stroke-miterlimit="10"/>
<path d="M4.50003 7.36723C3.92968 7.33603 3.39296 7.08749 3.00025 6.6727C2.60753 6.25792 2.38867 5.70843 2.38867 5.13723C2.38867 4.56603 2.60753 4.01653 3.00025 3.60175C3.39296 3.18697 3.92968 2.93842 4.50003 2.90723" stroke="#BAAA8F" stroke-miterlimit="10"/>
<path d="M5.45312 9.27344C5.78756 9.27344 6.11872 9.33931 6.42769 9.46729C6.73667 9.59527 7.01741 9.78286 7.25389 10.0193C7.49037 10.2558 7.67796 10.5366 7.80594 10.8455C7.93392 11.1545 7.99979 11.4857 7.99979 11.8201" stroke="#BAAA8F" stroke-miterlimit="10"/>
<path d="M6.09277 4.82056C6.34372 4.82056 6.5922 4.77102 6.82397 4.67479C7.05573 4.57855 7.26621 4.43751 7.44335 4.25976C7.62049 4.082 7.7608 3.87102 7.85622 3.63892C7.95165 3.40683 8.00032 3.15817 7.99944 2.90723" stroke="#BAAA8F" stroke-miterlimit="10"/>
<path d="M8 2.90659V13.7266C8.00175 14.0638 8.13647 14.3866 8.37489 14.625C8.6133 14.8635 8.93616 14.9982 9.27333 14.9999C9.60997 14.9964 9.93183 14.8612 10.1699 14.6231C10.4079 14.3851 10.5432 14.0632 10.5467 13.7266C10.6531 13.7371 10.7603 13.7371 10.8667 13.7266C11.4567 13.7248 12.022 13.4897 12.4392 13.0725C12.8564 12.6553 13.0916 12.0899 13.0933 11.4999C13.0928 11.3429 13.075 11.1864 13.04 11.0333C13.5605 10.8606 14.0203 10.5419 14.3647 10.1152C14.7092 9.68848 14.9237 9.17175 14.9827 8.62657C15.0417 8.08139 14.9428 7.53073 14.6976 7.04021C14.4525 6.54969 14.0715 6.13999 13.6 5.85992C13.6836 5.62675 13.7264 5.38095 13.7267 5.13325C13.7258 4.59876 13.5327 4.08241 13.1827 3.6785C12.8326 3.27458 12.3489 3.01007 11.82 2.93325C11.7912 2.4462 11.5774 1.98854 11.2224 1.65387C10.8674 1.31921 10.3979 1.13281 9.91 1.13281C9.4221 1.13281 8.95262 1.31921 8.59759 1.65387C8.24256 1.98854 8.02879 2.4462 8 2.93325V2.90659Z" stroke="#BAAA8F" stroke-miterlimit="10"/>
<path d="M11.5 7.36723C12.0703 7.33603 12.6071 7.08749 12.9998 6.6727C13.3925 6.25792 13.6114 5.70843 13.6114 5.13723C13.6114 4.56603 13.3925 4.01653 12.9998 3.60175C12.6071 3.18697 12.0703 2.93842 11.5 2.90723" stroke="#BAAA8F" stroke-miterlimit="10"/>
<path d="M10.5467 9.27344C9.87125 9.27344 9.22349 9.54175 8.7459 10.0193C8.26831 10.4969 8 11.1447 8 11.8201" stroke="#BAAA8F" stroke-miterlimit="10"/>
<path d="M9.90668 4.82056C9.65573 4.82056 9.40725 4.77102 9.17549 4.67479C8.94372 4.57855 8.73324 4.43751 8.5561 4.25976C8.37896 4.082 8.23866 3.87102 8.14323 3.63892C8.0478 3.40683 7.99913 3.15817 8.00001 2.90723" stroke="#BAAA8F" stroke-miterlimit="10"/>
</g>
<defs>
<clipPath id="clip0_156_556">
<rect width="16" height="16" fill="white"/>
</clipPath>
</defs>
</svg>
